M48
;Layer_Color=9474304
;FILE_FORMAT=2:4
INCH,LZ
T13F00S00C0.2000
%
G90
G05
T13
G00X-00105Y00325
M15
G01X00185Y003254
G01X002038Y003239
G01X002222Y003195
G01X002396Y003123
G01X002558Y003024
G01X002701Y002901
G01X002824Y002758
G01X002923Y002596
G01X002995Y002422
G01X003039Y002238
G01X003054Y00205
G01X00305Y00205
G01X00305Y-0009
G01X0418Y-0009
G01X041796Y002
G01X041811Y002188
G01X041855Y002372
G01X041927Y002546
G01X042026Y002708
G01X042149Y002851
G01X042292Y002974
G01X042454Y003073
G01X042628Y003145
G01X042812Y003189
G01X043Y003204
G01X043Y0032
G01X04595Y0032
G01X04595Y0314
G01X043Y031396
G01X042812Y031411
G01X042628Y031455
G01X042454Y031527
G01X042292Y031626
G01X042149Y031749
G01X042026Y031892
G01X041927Y032054
G01X041855Y032228
G01X041811Y032412
G01X041796Y0326
G01X041796Y0326
G01X041811Y032788
G01X041855Y032972
G01X041927Y033146
G01X042026Y033308
G01X042149Y033451
G01X042292Y033574
G01X042454Y033673
G01X042628Y033745
G01X042812Y033789
G01X043Y033804
G01X043Y0338
G01X04595Y0338
G01X04595Y03825
G01X-00105Y03825
G01X-00105Y0338
G01X0019Y033804
G01X002088Y033789
G01X002272Y033745
G01X002446Y033673
G01X002608Y033574
G01X002751Y033451
G01X002874Y033308
G01X002973Y033146
G01X003045Y032972
G01X003089Y032788
G01X003104Y0326
G01X003104Y0326
G01X003089Y032412
G01X003045Y032228
G01X002973Y032054
G01X002874Y031892
G01X002751Y031749
G01X002608Y031626
G01X002446Y031527
G01X002272Y031455
G01X002088Y031411
G01X0019Y031396
G01X0019Y0314
G01X-00105Y0314
G01X-00105Y00325
M16
M17
M30
