M48
;Layer_Color=9474304
;FILE_FORMAT=2:4
INCH,LZ
;TYPE=PLATED
T1F00S00C0.0280
T2F00S00C0.0315
T3F00S00C0.0335
T4F00S00C0.0354
T5F00S00C0.0360
T6F00S00C0.0394
T7F00S00C0.0420
T9F00S00C0.0500
T10F00S00C0.0550
T11F00S00C0.1560
;TYPE=NON_PLATED
T12F00S00C0.1400
%
T01
X0283Y0117
X02985Y03165
X03125Y0338
X0327Y03375
X0286Y0348
X02765Y03595
X0269Y03335
T02
X027158Y0297
X028142
T03
X0283Y0226
Y0266
T04
X0349Y034
Y035
X0359
Y034
T05
X00355Y01725
Y02025
T06
X00495Y0124
X01195
X03275
X03975
T07
X0384Y0299
Y0309
Y0319
T09
X0242Y03125
X0062Y02725
Y03525
X0242
T10
X00175Y01875
Y02025
X038Y03535
X0395
T11
X01295Y01885
X01795Y02395
X00795
T12
X00185Y01015
X04305
Y0264
X00185
M30
