%FSLAX24Y24*%
%MOIN*%
G70*
G01*
G75*
G04 Layer_Physical_Order=1*
G04 Layer_Color=255*
%ADD10R,0.0236X0.0335*%
%ADD11R,0.1100X0.0290*%
%ADD12R,0.0591X0.0512*%
%ADD13R,0.0630X0.0512*%
%ADD14R,0.0512X0.0591*%
%ADD15O,0.0630X0.0236*%
%ADD16R,0.0550X0.1181*%
%ADD17C,0.0100*%
%ADD18C,0.0500*%
%ADD19C,0.0787*%
%ADD20O,0.0866X0.1102*%
%ADD21C,0.0669*%
G04:AMPARAMS|DCode=22|XSize=66.9mil|YSize=66.9mil|CornerRadius=8.4mil|HoleSize=0mil|Usage=FLASHONLY|Rotation=180.000|XOffset=0mil|YOffset=0mil|HoleType=Round|Shape=RoundedRectangle|*
%AMROUNDEDRECTD22*
21,1,0.0669,0.0502,0,0,180.0*
21,1,0.0502,0.0669,0,0,180.0*
1,1,0.0167,-0.0251,0.0251*
1,1,0.0167,0.0251,0.0251*
1,1,0.0167,0.0251,-0.0251*
1,1,0.0167,-0.0251,-0.0251*
%
%ADD22ROUNDEDRECTD22*%
%ADD23C,0.1000*%
%ADD24C,0.2500*%
G04:AMPARAMS|DCode=25|XSize=75mil|YSize=75mil|CornerRadius=9.4mil|HoleSize=0mil|Usage=FLASHONLY|Rotation=0.000|XOffset=0mil|YOffset=0mil|HoleType=Round|Shape=RoundedRectangle|*
%AMROUNDEDRECTD25*
21,1,0.0750,0.0563,0,0,0.0*
21,1,0.0563,0.0750,0,0,0.0*
1,1,0.0188,0.0281,-0.0281*
1,1,0.0188,-0.0281,-0.0281*
1,1,0.0188,-0.0281,0.0281*
1,1,0.0188,0.0281,0.0281*
%
%ADD25ROUNDEDRECTD25*%
%ADD26C,0.0750*%
G04:AMPARAMS|DCode=27|XSize=110mil|YSize=110mil|CornerRadius=13.8mil|HoleSize=0mil|Usage=FLASHONLY|Rotation=90.000|XOffset=0mil|YOffset=0mil|HoleType=Round|Shape=RoundedRectangle|*
%AMROUNDEDRECTD27*
21,1,0.1100,0.0825,0,0,90.0*
21,1,0.0825,0.1100,0,0,90.0*
1,1,0.0275,0.0413,0.0413*
1,1,0.0275,0.0413,-0.0413*
1,1,0.0275,-0.0413,-0.0413*
1,1,0.0275,-0.0413,0.0413*
%
%ADD27ROUNDEDRECTD27*%
%ADD28C,0.1100*%
%ADD29O,0.0850X0.1000*%
G04:AMPARAMS|DCode=30|XSize=110mil|YSize=110mil|CornerRadius=13.8mil|HoleSize=0mil|Usage=FLASHONLY|Rotation=180.000|XOffset=0mil|YOffset=0mil|HoleType=Round|Shape=RoundedRectangle|*
%AMROUNDEDRECTD30*
21,1,0.1100,0.0825,0,0,180.0*
21,1,0.0825,0.1100,0,0,180.0*
1,1,0.0275,-0.0413,0.0413*
1,1,0.0275,0.0413,0.0413*
1,1,0.0275,0.0413,-0.0413*
1,1,0.0275,-0.0413,-0.0413*
%
%ADD30ROUNDEDRECTD30*%
%ADD31C,0.1300*%
%ADD32C,0.0551*%
%ADD33C,0.0591*%
%ADD34R,0.0591X0.0591*%
%ADD35C,0.0500*%
G36*
X32285Y35473D02*
Y34918D01*
X32285Y34918D01*
X32285Y34882D01*
X32285D01*
Y34170D01*
X32547D01*
Y34065D01*
X32523Y34056D01*
X32450Y34000D01*
X32394Y33927D01*
X32359Y33841D01*
X32347Y33750D01*
X32359Y33659D01*
X32394Y33573D01*
X32450Y33500D01*
X32523Y33444D01*
X32609Y33409D01*
X32700Y33397D01*
X32791Y33409D01*
X32877Y33444D01*
X32950Y33500D01*
X33006Y33573D01*
X33041Y33659D01*
X33053Y33750D01*
X33041Y33841D01*
X33006Y33927D01*
X32950Y34000D01*
X32877Y34056D01*
X32853Y34065D01*
Y34170D01*
X33115D01*
Y34612D01*
X33161Y34632D01*
X33297Y34496D01*
Y31895D01*
X32000D01*
Y31689D01*
X31950Y31684D01*
X31946Y31704D01*
X31913Y31753D01*
X31908Y31758D01*
X31859Y31791D01*
X31800Y31803D01*
X31600D01*
Y31895D01*
X30300D01*
Y31803D01*
X30165D01*
X30156Y31827D01*
X30100Y31900D01*
X30027Y31956D01*
X29941Y31991D01*
X29850Y32003D01*
X29759Y31991D01*
X29673Y31956D01*
X29600Y31900D01*
X29544Y31827D01*
X29509Y31741D01*
X29497Y31650D01*
X29509Y31559D01*
X29544Y31473D01*
X29600Y31400D01*
X29673Y31344D01*
X29759Y31309D01*
X29850Y31297D01*
X29941Y31309D01*
X30027Y31344D01*
X30100Y31400D01*
X30156Y31473D01*
X30165Y31497D01*
X30300D01*
Y31430D01*
X30300Y31430D01*
X30300D01*
X30300Y31405D01*
Y31400D01*
Y31395D01*
X30300Y31370D01*
X30300Y31370D01*
X30300D01*
Y30930D01*
X30300Y30930D01*
X30300D01*
X30300Y30905D01*
Y30900D01*
Y30895D01*
X30300Y30870D01*
X30300Y30870D01*
X30300D01*
Y30430D01*
X30300Y30430D01*
X30300D01*
X30300Y30405D01*
Y30400D01*
Y30395D01*
X30300Y30370D01*
X30300Y30370D01*
X30300D01*
Y29930D01*
X30300Y29930D01*
X30300D01*
X30300Y29905D01*
Y29900D01*
Y29895D01*
Y29882D01*
X30254Y29862D01*
X27790Y32326D01*
Y33578D01*
X27834D01*
X27919Y33595D01*
X27991Y33643D01*
X27994Y33647D01*
X29124D01*
X29347Y33424D01*
X29397Y33391D01*
X29455Y33379D01*
X30071D01*
X30129Y33391D01*
X30179Y33424D01*
X30179Y33424D01*
X30179Y33424D01*
X30893Y34138D01*
X30915Y34170D01*
X31097D01*
Y34115D01*
X31073Y34106D01*
X31000Y34050D01*
X30944Y33977D01*
X30909Y33891D01*
X30897Y33800D01*
X30909Y33709D01*
X30944Y33623D01*
X31000Y33550D01*
X31073Y33494D01*
X31159Y33459D01*
X31250Y33447D01*
X31341Y33459D01*
X31427Y33494D01*
X31500Y33550D01*
X31556Y33623D01*
X31591Y33709D01*
X31603Y33800D01*
X31591Y33891D01*
X31556Y33977D01*
X31500Y34050D01*
X31427Y34106D01*
X31403Y34115D01*
Y34170D01*
X31665D01*
Y34882D01*
D01*
Y34882D01*
X31665Y34882D01*
Y34918D01*
X31665D01*
Y35527D01*
X32231D01*
X32285Y35473D01*
D02*
G37*
G36*
X44297Y35588D02*
X44262Y35553D01*
X43000Y35553D01*
X43000Y35555D01*
X43000Y35555D01*
D01*
X42669Y35537D01*
X42342Y35481D01*
X42024Y35389D01*
X41718Y35262D01*
X41428Y35102D01*
X41158Y34910D01*
X40910Y34690D01*
X40690Y34442D01*
X40498Y34172D01*
X40338Y33882D01*
X40211Y33576D01*
X40119Y33258D01*
X40063Y32931D01*
X40045Y32600D01*
X40063Y32269D01*
X40119Y31942D01*
X40211Y31624D01*
X40338Y31318D01*
X40498Y31028D01*
X40690Y30758D01*
X40910Y30510D01*
X41158Y30290D01*
X41428Y30098D01*
X41718Y29938D01*
X42024Y29811D01*
X42342Y29719D01*
X42669Y29663D01*
X43000Y29645D01*
Y29647D01*
X43002Y29647D01*
X44297D01*
Y5053D01*
X42800D01*
Y5055D01*
X42470Y5037D01*
X42143Y4981D01*
X41824Y4889D01*
X41518Y4762D01*
X41228Y4602D01*
X40958Y4410D01*
X40711Y4190D01*
X40594Y4059D01*
X40548Y4078D01*
X40554Y4150D01*
X40553D01*
Y6050D01*
X40554D01*
X40539Y6230D01*
X40497Y6406D01*
X40428Y6574D01*
X40333Y6728D01*
X40216Y6866D01*
X40078Y6983D01*
X39924Y7078D01*
X39756Y7147D01*
X39580Y7189D01*
X39400Y7204D01*
X39220Y7189D01*
X39044Y7147D01*
X38876Y7078D01*
X38722Y6983D01*
X38584Y6866D01*
X38467Y6728D01*
X38372Y6574D01*
X38303Y6406D01*
X38261Y6230D01*
X38246Y6050D01*
X38247D01*
Y4150D01*
X38246D01*
X38261Y3970D01*
X38303Y3794D01*
X38372Y3626D01*
X38467Y3472D01*
X38584Y3334D01*
X38722Y3217D01*
X38876Y3122D01*
X39044Y3053D01*
X39220Y3011D01*
X39400Y2996D01*
X39580Y3011D01*
X39756Y3053D01*
X39924Y3122D01*
X39998Y3167D01*
X40036Y3135D01*
X40011Y3076D01*
X39919Y2758D01*
X39864Y2431D01*
X39845Y2100D01*
X39847D01*
Y853D01*
X4903D01*
Y2300D01*
X4905D01*
X4886Y2631D01*
X4831Y2958D01*
X4739Y3276D01*
X4612Y3582D01*
X4452Y3872D01*
X4260Y4142D01*
X4039Y4390D01*
X3792Y4610D01*
X3522Y4802D01*
X3232Y4962D01*
X2926Y5089D01*
X2607Y5181D01*
X2280Y5237D01*
X1950Y5255D01*
Y5253D01*
X603D01*
Y16247D01*
X13900D01*
X13959Y16259D01*
X14008Y16292D01*
X14008Y16292D01*
X14008Y16292D01*
X15158Y17442D01*
X15191Y17491D01*
X15203Y17550D01*
Y23550D01*
X15191Y23609D01*
X15158Y23658D01*
X9758Y29058D01*
X9709Y29091D01*
X9650Y29103D01*
X7353D01*
Y36350D01*
X7341Y36409D01*
X7308Y36458D01*
X7259Y36491D01*
X7200Y36503D01*
X5750D01*
X5701Y36493D01*
X5691Y36491D01*
X5642Y36458D01*
X3931Y34747D01*
X3745Y34913D01*
X3474Y35105D01*
X3326Y35187D01*
X3326Y35188D01*
X3312Y35197D01*
X3294Y35201D01*
X3182Y35262D01*
X2876Y35389D01*
X2558Y35481D01*
X2231Y35537D01*
X1900Y35555D01*
Y35553D01*
X603D01*
Y36597D01*
X27178D01*
X27197Y36551D01*
X25997Y35350D01*
X25963Y35301D01*
X25952Y35242D01*
Y33218D01*
X24502Y31769D01*
X24431Y31807D01*
X24318Y31841D01*
X24250Y31848D01*
Y31250D01*
Y30652D01*
X24318Y30659D01*
X24431Y30693D01*
X24535Y30749D01*
X24626Y30824D01*
X24701Y30915D01*
X24757Y31019D01*
X24781Y31097D01*
X25545D01*
X26762Y29880D01*
X26734Y29813D01*
X26726Y29750D01*
X27108D01*
Y30132D01*
X27044Y30123D01*
X26978Y30096D01*
X25716Y31358D01*
X25666Y31391D01*
X25608Y31403D01*
X24781D01*
X24757Y31481D01*
X24719Y31552D01*
X26213Y33047D01*
X26246Y33096D01*
X26258Y33155D01*
X26258Y33155D01*
X26258Y33155D01*
Y33155D01*
Y33820D01*
X26397D01*
Y33700D01*
X26397Y33700D01*
X26397D01*
X26409Y33641D01*
X26442Y33592D01*
X26569Y33465D01*
X26559Y33441D01*
X26547Y33350D01*
X26559Y33259D01*
X26594Y33173D01*
X26650Y33100D01*
X26723Y33044D01*
X26809Y33009D01*
X26900Y32997D01*
X26991Y33009D01*
X27077Y33044D01*
X27150Y33100D01*
X27206Y33173D01*
X27241Y33259D01*
X27253Y33350D01*
X27241Y33441D01*
X27206Y33527D01*
X27150Y33600D01*
X27077Y33656D01*
X26991Y33691D01*
X26900Y33703D01*
X26809Y33691D01*
X26785Y33681D01*
X26703Y33763D01*
Y33820D01*
X26945D01*
Y34147D01*
X27280D01*
X27283Y34143D01*
X27355Y34095D01*
X27440Y34078D01*
X27834D01*
X27919Y34095D01*
X27991Y34143D01*
X27994Y34147D01*
X29406D01*
X29409Y34143D01*
X29481Y34095D01*
X29566Y34078D01*
X29610D01*
Y34022D01*
X29566D01*
X29481Y34005D01*
X29409Y33957D01*
X29366Y33892D01*
X29316Y33887D01*
X29295Y33908D01*
X29246Y33941D01*
X29187Y33953D01*
X27994D01*
X27991Y33957D01*
X27919Y34005D01*
X27834Y34022D01*
X27440D01*
X27355Y34005D01*
X27283Y33957D01*
X27235Y33885D01*
X27218Y33800D01*
X27235Y33715D01*
X27283Y33643D01*
X27355Y33595D01*
X27440Y33578D01*
X27484D01*
Y32263D01*
X27496Y32204D01*
X27529Y32155D01*
X30142Y29542D01*
X30191Y29509D01*
X30250Y29497D01*
X30300D01*
Y29405D01*
X31600D01*
Y29870D01*
X31600Y29870D01*
D01*
D01*
X31600Y29895D01*
Y29896D01*
Y29900D01*
X31600Y29905D01*
X31600Y29930D01*
X31600Y29930D01*
X31600D01*
Y30370D01*
X31600Y30370D01*
D01*
D01*
X31600Y30395D01*
Y30396D01*
Y30400D01*
X31600Y30405D01*
X31600Y30430D01*
X31600Y30430D01*
X31600D01*
Y30870D01*
X31600Y30870D01*
D01*
D01*
X31600Y30895D01*
Y30896D01*
Y30900D01*
X31600Y30905D01*
X31600Y30930D01*
X31600Y30930D01*
X31600D01*
Y31370D01*
X31600Y31370D01*
D01*
D01*
X31600Y31395D01*
Y31396D01*
Y31400D01*
X31600Y31405D01*
X31600Y31430D01*
X31600Y31430D01*
X31600D01*
Y31497D01*
X31652D01*
Y29355D01*
X31664Y29296D01*
X31697Y29247D01*
X31746Y29214D01*
X31805Y29202D01*
X38597D01*
X38656Y29214D01*
X38706Y29247D01*
X38706Y29247D01*
X38706Y29247D01*
X39033Y29574D01*
X39066Y29624D01*
X39078Y29683D01*
Y30117D01*
X39066Y30176D01*
X39033Y30226D01*
X38736Y30523D01*
X38739Y30561D01*
X38815Y30660D01*
X38863Y30776D01*
X38879Y30900D01*
X38863Y31024D01*
X38815Y31140D01*
X38739Y31239D01*
X38640Y31315D01*
X38524Y31363D01*
X38459Y31371D01*
X38462Y31421D01*
X38681D01*
X38757Y31436D01*
X38821Y31479D01*
X38864Y31543D01*
X38879Y31619D01*
Y32181D01*
X38864Y32257D01*
X38821Y32321D01*
X38757Y32364D01*
X38681Y32379D01*
X38119D01*
X38043Y32364D01*
X37979Y32321D01*
X37936Y32257D01*
X37921Y32181D01*
Y31660D01*
X37875Y31641D01*
X36053Y33463D01*
Y33636D01*
X36099Y33655D01*
X36182Y33718D01*
X36245Y33801D01*
X36285Y33897D01*
X36299Y34000D01*
X36285Y34103D01*
X36245Y34199D01*
X36182Y34282D01*
X36099Y34345D01*
X36003Y34385D01*
X35900Y34399D01*
X35797Y34385D01*
X35701Y34345D01*
X35618Y34282D01*
X35555Y34199D01*
X35536Y34153D01*
X35295D01*
Y34395D01*
X34505D01*
Y33605D01*
X35295D01*
Y33847D01*
X35536D01*
X35555Y33801D01*
X35618Y33718D01*
X35701Y33655D01*
X35747Y33636D01*
Y33400D01*
X35759Y33341D01*
X35792Y33292D01*
X37973Y31111D01*
X37937Y31024D01*
X37921Y30900D01*
X37937Y30776D01*
X37985Y30660D01*
X38061Y30561D01*
X38160Y30485D01*
X38276Y30437D01*
X38348Y30428D01*
X38364Y30380D01*
X38357Y30373D01*
X38276Y30363D01*
X38160Y30315D01*
X38061Y30239D01*
X37985Y30140D01*
X37937Y30024D01*
X37921Y29900D01*
X37929Y29841D01*
X37896Y29803D01*
X33300D01*
Y29870D01*
X33300Y29870D01*
D01*
D01*
X33300Y29895D01*
Y29896D01*
Y29900D01*
X33300Y29905D01*
X33300Y29930D01*
X33300Y29930D01*
X33300D01*
Y29997D01*
X33450D01*
X33509Y30009D01*
X33558Y30042D01*
X33591Y30091D01*
X33603Y30150D01*
Y34559D01*
X33591Y34618D01*
X33558Y34667D01*
X33115Y35110D01*
Y35630D01*
X32560D01*
X32402Y35788D01*
X32353Y35821D01*
X32294Y35833D01*
X30873D01*
X30814Y35821D01*
X30765Y35788D01*
X30430Y35453D01*
X30120D01*
X30117Y35457D01*
X30045Y35505D01*
X29960Y35522D01*
X29566D01*
X29481Y35505D01*
X29409Y35457D01*
X29361Y35385D01*
X29344Y35300D01*
X29361Y35215D01*
X29409Y35143D01*
X29481Y35095D01*
X29566Y35078D01*
X29960D01*
X30045Y35095D01*
X30117Y35143D01*
X30120Y35147D01*
X30493D01*
X30552Y35159D01*
X30601Y35192D01*
X30789Y35380D01*
X30835Y35360D01*
Y35110D01*
X30677Y34952D01*
X30644Y34903D01*
X30632Y34844D01*
Y34309D01*
X30210Y33887D01*
X30160Y33892D01*
X30117Y33957D01*
X30045Y34005D01*
X29960Y34022D01*
X29916D01*
Y34078D01*
X29960D01*
X30045Y34095D01*
X30117Y34143D01*
X30165Y34215D01*
X30182Y34300D01*
X30165Y34385D01*
X30117Y34457D01*
X30045Y34505D01*
X29960Y34522D01*
X29566D01*
X29481Y34505D01*
X29409Y34457D01*
X29406Y34453D01*
X28800D01*
X28784Y34500D01*
X28850Y34550D01*
X28906Y34623D01*
X28941Y34709D01*
X28953Y34800D01*
X28941Y34891D01*
X28906Y34977D01*
X28850Y35050D01*
X28777Y35106D01*
X28691Y35141D01*
X28600Y35153D01*
X28509Y35141D01*
X28423Y35106D01*
X28350Y35050D01*
X28294Y34977D01*
X28285Y34953D01*
X27994D01*
X27991Y34957D01*
X27919Y35005D01*
X27834Y35022D01*
X27440D01*
X27355Y35005D01*
X27283Y34957D01*
X27235Y34885D01*
X27218Y34800D01*
X27235Y34715D01*
X27283Y34643D01*
X27355Y34595D01*
X27440Y34578D01*
X27834D01*
X27919Y34595D01*
X27991Y34643D01*
X27994Y34647D01*
X28285D01*
X28294Y34623D01*
X28350Y34550D01*
X28416Y34500D01*
X28400Y34453D01*
X27994D01*
X27991Y34457D01*
X27919Y34505D01*
X27834Y34522D01*
X27440D01*
X27355Y34505D01*
X27283Y34457D01*
X27280Y34453D01*
X26945D01*
Y34532D01*
D01*
Y34532D01*
X26945Y34532D01*
Y34568D01*
X26945D01*
Y35103D01*
X26989Y35147D01*
X27280D01*
X27283Y35143D01*
X27355Y35095D01*
X27440Y35078D01*
X27834D01*
X27919Y35095D01*
X27991Y35143D01*
X28039Y35215D01*
X28056Y35300D01*
X28039Y35385D01*
X27991Y35457D01*
X27919Y35505D01*
X27834Y35522D01*
X27790D01*
Y35629D01*
X27827Y35644D01*
X27900Y35700D01*
X27956Y35773D01*
X27991Y35859D01*
X28003Y35950D01*
X27991Y36041D01*
X27956Y36127D01*
X27900Y36200D01*
X27827Y36256D01*
X27741Y36291D01*
X27650Y36303D01*
X27559Y36291D01*
X27473Y36256D01*
X27400Y36200D01*
X27344Y36127D01*
X27309Y36041D01*
X27297Y35950D01*
X27309Y35859D01*
X27344Y35773D01*
X27400Y35700D01*
X27473Y35644D01*
X27484Y35640D01*
Y35522D01*
X27440D01*
X27355Y35505D01*
X27283Y35457D01*
X27280Y35453D01*
X26926D01*
X26867Y35441D01*
X26818Y35408D01*
X26690Y35280D01*
X26424D01*
X26405Y35326D01*
X27476Y36397D01*
X38237D01*
X38944Y35689D01*
X38897Y35600D01*
X38859Y35477D01*
X38852Y35400D01*
X39450D01*
Y35998D01*
X39373Y35991D01*
X39250Y35953D01*
X39161Y35906D01*
X38515Y36551D01*
X38535Y36597D01*
X44297D01*
Y35588D01*
D02*
G37*
%LPC*%
G36*
X11600Y7215D02*
X11419Y7201D01*
X11243Y7159D01*
X11076Y7089D01*
X10922Y6995D01*
X10784Y6877D01*
X10666Y6739D01*
X10572Y6585D01*
X10503Y6418D01*
X10460Y6242D01*
X10446Y6061D01*
X10447D01*
Y4161D01*
X10446D01*
X10460Y3981D01*
X10503Y3805D01*
X10572Y3638D01*
X10666Y3483D01*
X10784Y3346D01*
X10922Y3228D01*
X11076Y3134D01*
X11243Y3064D01*
X11419Y3022D01*
X11600Y3008D01*
X11780Y3022D01*
X11956Y3064D01*
X12123Y3134D01*
X12278Y3228D01*
X12415Y3346D01*
X12533Y3483D01*
X12627Y3638D01*
X12697Y3805D01*
X12739Y3981D01*
X12753Y4161D01*
X12753D01*
Y6061D01*
X12753D01*
X12739Y6242D01*
X12697Y6418D01*
X12627Y6585D01*
X12533Y6739D01*
X12415Y6877D01*
X12278Y6995D01*
X12123Y7089D01*
X11956Y7159D01*
X11780Y7201D01*
X11600Y7215D01*
D02*
G37*
G36*
X33789D02*
X33609Y7201D01*
X33433Y7159D01*
X33266Y7089D01*
X33111Y6995D01*
X32974Y6877D01*
X32856Y6739D01*
X32762Y6585D01*
X32692Y6418D01*
X32650Y6242D01*
X32636Y6061D01*
X32636D01*
Y4161D01*
X32636D01*
X32650Y3981D01*
X32692Y3805D01*
X32762Y3638D01*
X32856Y3483D01*
X32974Y3346D01*
X33111Y3228D01*
X33266Y3134D01*
X33433Y3064D01*
X33609Y3022D01*
X33789Y3008D01*
X33970Y3022D01*
X34146Y3064D01*
X34313Y3134D01*
X34467Y3228D01*
X34605Y3346D01*
X34723Y3483D01*
X34817Y3638D01*
X34886Y3805D01*
X34929Y3981D01*
X34943Y4161D01*
X34942D01*
Y6061D01*
X34943D01*
X34929Y6242D01*
X34886Y6418D01*
X34817Y6585D01*
X34723Y6739D01*
X34605Y6877D01*
X34467Y6995D01*
X34313Y7089D01*
X34146Y7159D01*
X33970Y7201D01*
X33789Y7215D01*
D02*
G37*
G36*
X28672Y22550D02*
X28350D01*
Y22228D01*
X28398Y22234D01*
X28489Y22272D01*
X28568Y22332D01*
X28628Y22411D01*
X28666Y22502D01*
X28672Y22550D01*
D02*
G37*
G36*
X27590Y29650D02*
X26726D01*
X26734Y29587D01*
X26778Y29481D01*
X26848Y29390D01*
X26939Y29320D01*
X27005Y29293D01*
Y27818D01*
X27017Y27760D01*
X27020Y27754D01*
Y27650D01*
X27326D01*
Y27995D01*
X27311D01*
Y29293D01*
X27377Y29320D01*
X27468Y29390D01*
X27538Y29481D01*
X27581Y29587D01*
X27590Y29650D01*
D02*
G37*
G36*
X43050Y27503D02*
X42877Y27490D01*
X42709Y27449D01*
X42549Y27383D01*
X42401Y27293D01*
X42270Y27180D01*
X42157Y27049D01*
X42067Y26901D01*
X42001Y26741D01*
X41960Y26573D01*
X41947Y26400D01*
X41960Y26227D01*
X42001Y26059D01*
X42067Y25899D01*
X42157Y25751D01*
X42270Y25620D01*
X42401Y25507D01*
X42549Y25417D01*
X42709Y25351D01*
X42877Y25310D01*
X43050Y25297D01*
X43223Y25310D01*
X43391Y25351D01*
X43551Y25417D01*
X43699Y25507D01*
X43830Y25620D01*
X43943Y25751D01*
X44033Y25899D01*
X44099Y26059D01*
X44140Y26227D01*
X44153Y26400D01*
X44140Y26573D01*
X44099Y26741D01*
X44033Y26901D01*
X43943Y27049D01*
X43830Y27180D01*
X43699Y27293D01*
X43551Y27383D01*
X43391Y27449D01*
X43223Y27490D01*
X43050Y27503D01*
D02*
G37*
G36*
X5989Y7215D02*
X5809Y7201D01*
X5633Y7159D01*
X5466Y7089D01*
X5311Y6995D01*
X5174Y6877D01*
X5056Y6739D01*
X4962Y6585D01*
X4892Y6418D01*
X4850Y6242D01*
X4836Y6061D01*
X4836D01*
Y4161D01*
X4836D01*
X4850Y3981D01*
X4892Y3805D01*
X4962Y3638D01*
X5056Y3483D01*
X5174Y3346D01*
X5311Y3228D01*
X5466Y3134D01*
X5633Y3064D01*
X5809Y3022D01*
X5989Y3008D01*
X6170Y3022D01*
X6346Y3064D01*
X6513Y3134D01*
X6667Y3228D01*
X6805Y3346D01*
X6923Y3483D01*
X7017Y3638D01*
X7086Y3805D01*
X7129Y3981D01*
X7143Y4161D01*
X7142D01*
Y6061D01*
X7143D01*
X7129Y6242D01*
X7086Y6418D01*
X7017Y6585D01*
X6923Y6739D01*
X6805Y6877D01*
X6667Y6995D01*
X6513Y7089D01*
X6346Y7159D01*
X6170Y7201D01*
X5989Y7215D01*
D02*
G37*
G36*
X1850Y11253D02*
X1677Y11240D01*
X1509Y11199D01*
X1349Y11133D01*
X1201Y11043D01*
X1070Y10930D01*
X957Y10799D01*
X867Y10651D01*
X801Y10491D01*
X760Y10323D01*
X747Y10150D01*
X760Y9977D01*
X801Y9809D01*
X867Y9649D01*
X957Y9501D01*
X1070Y9370D01*
X1201Y9257D01*
X1349Y9167D01*
X1509Y9101D01*
X1677Y9060D01*
X1850Y9047D01*
X2023Y9060D01*
X2191Y9101D01*
X2351Y9167D01*
X2499Y9257D01*
X2630Y9370D01*
X2743Y9501D01*
X2833Y9649D01*
X2899Y9809D01*
X2940Y9977D01*
X2953Y10150D01*
X2940Y10323D01*
X2899Y10491D01*
X2833Y10651D01*
X2743Y10799D01*
X2630Y10930D01*
X2499Y11043D01*
X2351Y11133D01*
X2191Y11199D01*
X2023Y11240D01*
X1850Y11253D01*
D02*
G37*
G36*
X43050D02*
X42877Y11240D01*
X42709Y11199D01*
X42549Y11133D01*
X42401Y11043D01*
X42270Y10930D01*
X42157Y10799D01*
X42067Y10651D01*
X42001Y10491D01*
X41960Y10323D01*
X41947Y10150D01*
X41960Y9977D01*
X42001Y9809D01*
X42067Y9649D01*
X42157Y9501D01*
X42270Y9370D01*
X42401Y9257D01*
X42549Y9167D01*
X42709Y9101D01*
X42877Y9060D01*
X43050Y9047D01*
X43223Y9060D01*
X43391Y9101D01*
X43551Y9167D01*
X43699Y9257D01*
X43830Y9370D01*
X43943Y9501D01*
X44033Y9649D01*
X44099Y9809D01*
X44140Y9977D01*
X44153Y10150D01*
X44140Y10323D01*
X44099Y10491D01*
X44033Y10651D01*
X43943Y10799D01*
X43830Y10930D01*
X43699Y11043D01*
X43551Y11133D01*
X43391Y11199D01*
X43223Y11240D01*
X43050Y11253D01*
D02*
G37*
G36*
X37824Y13427D02*
X37656D01*
Y13209D01*
X37824D01*
Y13427D01*
D02*
G37*
G36*
X28250Y22550D02*
X27928D01*
X27934Y22502D01*
X27972Y22411D01*
X28032Y22332D01*
X28111Y22272D01*
X28202Y22234D01*
X28250Y22228D01*
Y22550D01*
D02*
G37*
G36*
X17950Y25854D02*
X17701Y25838D01*
X17457Y25789D01*
X17221Y25709D01*
X16998Y25599D01*
X16791Y25461D01*
X16604Y25296D01*
X16439Y25109D01*
X16301Y24902D01*
X16191Y24679D01*
X16111Y24443D01*
X16062Y24199D01*
X16046Y23950D01*
X16062Y23701D01*
X16111Y23457D01*
X16191Y23221D01*
X16301Y22998D01*
X16439Y22791D01*
X16604Y22604D01*
X16791Y22439D01*
X16998Y22301D01*
X17221Y22191D01*
X17457Y22111D01*
X17701Y22062D01*
X17950Y22046D01*
X18199Y22062D01*
X18443Y22111D01*
X18679Y22191D01*
X18902Y22301D01*
X19109Y22439D01*
X19296Y22604D01*
X19461Y22791D01*
X19599Y22998D01*
X19709Y23221D01*
X19789Y23457D01*
X19838Y23701D01*
X19854Y23950D01*
X19838Y24199D01*
X19789Y24443D01*
X19709Y24679D01*
X19599Y24902D01*
X19461Y25109D01*
X19296Y25296D01*
X19109Y25461D01*
X18902Y25599D01*
X18679Y25709D01*
X18443Y25789D01*
X18199Y25838D01*
X17950Y25854D01*
D02*
G37*
G36*
X31562Y26648D02*
X30338D01*
X30279Y26636D01*
X30230Y26603D01*
X29692Y26065D01*
X29659Y26016D01*
X29647Y25957D01*
Y24163D01*
X28435Y22951D01*
X28398Y22966D01*
X28350Y22972D01*
Y22650D01*
X28672D01*
X28666Y22698D01*
X28651Y22735D01*
X29801Y23885D01*
X29847Y23865D01*
Y23363D01*
X21011Y14527D01*
X10713D01*
X10458Y14782D01*
X10409Y14815D01*
X10350Y14827D01*
X10165D01*
Y15030D01*
X9335D01*
Y14318D01*
X9335Y14318D01*
X9335Y14282D01*
X9335D01*
Y14255D01*
X9289Y14236D01*
X8576Y14949D01*
X8526Y14982D01*
X8468Y14993D01*
X5070D01*
X5021Y14984D01*
X5011Y14982D01*
X4962Y14949D01*
X4674Y14661D01*
X4641Y14611D01*
X4629Y14553D01*
Y13744D01*
X4458D01*
Y13209D01*
X4533D01*
X4547Y13162D01*
X4542Y13158D01*
X4092Y12708D01*
X4059Y12659D01*
X4047Y12600D01*
Y11950D01*
X4059Y11891D01*
X4092Y11842D01*
X4386Y11548D01*
X4435Y11515D01*
X4494Y11503D01*
X28010D01*
X28050Y11450D01*
X28123Y11394D01*
X28209Y11359D01*
X28250Y11354D01*
Y11700D01*
Y12046D01*
X28209Y12041D01*
X28123Y12006D01*
X28050Y11950D01*
X27994Y11877D01*
X27966Y11809D01*
X12410D01*
X12391Y11855D01*
X12832Y12297D01*
X32266D01*
X32269Y12271D01*
X32319Y12151D01*
X32398Y12048D01*
X32501Y11969D01*
X32621Y11919D01*
X32744Y11903D01*
X32741Y11853D01*
X28615D01*
X28606Y11877D01*
X28550Y11950D01*
X28477Y12006D01*
X28391Y12041D01*
X28350Y12046D01*
Y11700D01*
Y11354D01*
X28391Y11359D01*
X28477Y11394D01*
X28550Y11450D01*
X28606Y11523D01*
X28615Y11547D01*
X39819D01*
X39877Y11559D01*
X39927Y11592D01*
X39927Y11592D01*
X39927Y11592D01*
X40402Y12067D01*
X40435Y12116D01*
X40447Y12175D01*
X40447Y12175D01*
X40447Y12175D01*
Y12175D01*
Y12625D01*
X40435Y12684D01*
X40402Y12733D01*
X40069Y13066D01*
X40019Y13099D01*
X39961Y13111D01*
X38456D01*
X38140Y13427D01*
X37924D01*
Y13209D01*
X37925D01*
X38284Y12850D01*
X38334Y12817D01*
X38393Y12805D01*
X39389D01*
X39405Y12758D01*
X39398Y12752D01*
X39319Y12649D01*
X39279Y12553D01*
X37694D01*
X37084Y13163D01*
X37103Y13209D01*
X37344D01*
Y13479D01*
X37610Y13744D01*
X37656Y13725D01*
Y13527D01*
X38092D01*
Y13744D01*
D01*
Y13744D01*
X38121Y13773D01*
X38635D01*
Y13570D01*
X39465D01*
Y14282D01*
D01*
Y14282D01*
X39465Y14282D01*
Y14318D01*
X39465D01*
Y15030D01*
X39203D01*
Y20400D01*
X39191Y20459D01*
X39158Y20508D01*
X33858Y25808D01*
X33809Y25841D01*
X33750Y25853D01*
X33300D01*
Y25920D01*
X33300Y25920D01*
D01*
D01*
X33300Y25945D01*
Y25946D01*
Y25950D01*
X33300Y25955D01*
X33300Y25980D01*
X33300Y25980D01*
X33300D01*
Y26445D01*
X32000D01*
Y25980D01*
X32000Y25980D01*
X32000D01*
X32000Y25955D01*
Y25950D01*
Y25945D01*
X32000Y25920D01*
X32000Y25920D01*
X32000D01*
Y25480D01*
X32000Y25480D01*
X32000D01*
X32000Y25455D01*
Y25450D01*
Y25445D01*
X32000Y25420D01*
X32000Y25420D01*
X32000D01*
Y24980D01*
X32000Y24980D01*
X32000D01*
X32000Y24955D01*
Y24950D01*
Y24945D01*
X32000Y24920D01*
X32000Y24920D01*
X32000D01*
Y24724D01*
X31954Y24705D01*
X31803Y24856D01*
Y26407D01*
X31791Y26466D01*
X31758Y26515D01*
X31670Y26603D01*
X31621Y26636D01*
X31562Y26648D01*
D02*
G37*
G36*
X38412Y36005D02*
X37587D01*
X37495Y35986D01*
X37416Y35934D01*
X37364Y35855D01*
X37345Y35763D01*
Y34938D01*
X37364Y34845D01*
X37416Y34766D01*
X37495Y34714D01*
X37587Y34695D01*
X38412D01*
X38505Y34714D01*
X38584Y34766D01*
X38636Y34845D01*
X38655Y34938D01*
Y35763D01*
X38636Y35855D01*
X38584Y35934D01*
X38505Y35986D01*
X38412Y36005D01*
D02*
G37*
G36*
X24200Y35853D02*
X24082Y35841D01*
X23969Y35807D01*
X23865Y35751D01*
X23774Y35676D01*
X23699Y35585D01*
X23643Y35481D01*
X23609Y35368D01*
X23597Y35250D01*
X23609Y35132D01*
X23643Y35019D01*
X23699Y34915D01*
X23774Y34824D01*
X23865Y34749D01*
X23969Y34693D01*
X24082Y34659D01*
X24200Y34647D01*
X24318Y34659D01*
X24431Y34693D01*
X24535Y34749D01*
X24626Y34824D01*
X24701Y34915D01*
X24757Y35019D01*
X24791Y35132D01*
X24803Y35250D01*
X24791Y35368D01*
X24757Y35481D01*
X24701Y35585D01*
X24626Y35676D01*
X24535Y35751D01*
X24431Y35807D01*
X24318Y35841D01*
X24200Y35853D01*
D02*
G37*
G36*
X35900Y35399D02*
X35797Y35385D01*
X35701Y35345D01*
X35618Y35282D01*
X35555Y35199D01*
X35515Y35103D01*
X35501Y35000D01*
X35515Y34897D01*
X35555Y34801D01*
X35618Y34718D01*
X35701Y34655D01*
X35797Y34615D01*
X35900Y34601D01*
X36003Y34615D01*
X36099Y34655D01*
X36182Y34718D01*
X36245Y34801D01*
X36285Y34897D01*
X36299Y35000D01*
X36285Y35103D01*
X36245Y35199D01*
X36182Y35282D01*
X36099Y35345D01*
X36003Y35385D01*
X35900Y35399D01*
D02*
G37*
G36*
X39550Y35998D02*
Y35400D01*
X40148D01*
X40141Y35477D01*
X40103Y35600D01*
X40043Y35713D01*
X39962Y35812D01*
X39863Y35893D01*
X39750Y35953D01*
X39627Y35991D01*
X39550Y35998D01*
D02*
G37*
G36*
X40148Y35300D02*
X39550D01*
Y34702D01*
X39627Y34709D01*
X39750Y34747D01*
X39863Y34807D01*
X39962Y34888D01*
X40043Y34987D01*
X40103Y35100D01*
X40141Y35223D01*
X40148Y35300D01*
D02*
G37*
G36*
X39450D02*
X38852D01*
X38859Y35223D01*
X38897Y35100D01*
X38957Y34987D01*
X39038Y34888D01*
X39137Y34807D01*
X39250Y34747D01*
X39373Y34709D01*
X39450Y34702D01*
Y35300D01*
D02*
G37*
G36*
X24150Y31200D02*
X23602D01*
X23609Y31132D01*
X23643Y31019D01*
X23699Y30915D01*
X23774Y30824D01*
X23865Y30749D01*
X23969Y30693D01*
X24082Y30659D01*
X24150Y30652D01*
Y31200D01*
D02*
G37*
G36*
X27208Y30132D02*
Y29750D01*
X27590D01*
X27581Y29813D01*
X27538Y29919D01*
X27468Y30010D01*
X27377Y30080D01*
X27271Y30123D01*
X27208Y30132D01*
D02*
G37*
G36*
X28393Y30138D02*
X27891D01*
X27819Y30124D01*
X27759Y30083D01*
X27718Y30023D01*
X27704Y29951D01*
Y29449D01*
X27718Y29377D01*
X27759Y29317D01*
X27819Y29276D01*
X27891Y29262D01*
X27971D01*
Y27995D01*
X27768D01*
D01*
D01*
X27768Y27995D01*
X27732D01*
Y27995D01*
X27426D01*
Y27600D01*
X27376D01*
Y27550D01*
X27020D01*
Y27205D01*
X27223D01*
Y23524D01*
X27223Y23524D01*
X27223D01*
X27235Y23465D01*
X27268Y23416D01*
X27949Y22735D01*
X27934Y22698D01*
X27928Y22650D01*
X28250D01*
Y22972D01*
X28202Y22966D01*
X28165Y22951D01*
X27529Y23587D01*
Y27205D01*
X27732D01*
Y27205D01*
X27732D01*
X27732Y27205D01*
X27768D01*
Y27205D01*
X28147D01*
Y26943D01*
X28111Y26928D01*
X28032Y26868D01*
X27972Y26789D01*
X27934Y26698D01*
X27921Y26600D01*
X27934Y26502D01*
X27972Y26411D01*
X28032Y26332D01*
X28111Y26272D01*
X28202Y26234D01*
X28300Y26221D01*
X28398Y26234D01*
X28489Y26272D01*
X28568Y26332D01*
X28628Y26411D01*
X28666Y26502D01*
X28679Y26600D01*
X28666Y26698D01*
X28628Y26789D01*
X28568Y26868D01*
X28489Y26928D01*
X28453Y26943D01*
Y27205D01*
X28480D01*
Y27995D01*
X28277D01*
Y29262D01*
X28393D01*
X28465Y29276D01*
X28526Y29317D01*
X28566Y29377D01*
X28580Y29449D01*
Y29951D01*
X28566Y30023D01*
X28526Y30083D01*
X28465Y30124D01*
X28393Y30138D01*
D02*
G37*
G36*
X34900Y35399D02*
X34797Y35385D01*
X34701Y35345D01*
X34618Y35282D01*
X34555Y35199D01*
X34515Y35103D01*
X34501Y35000D01*
X34515Y34897D01*
X34555Y34801D01*
X34618Y34718D01*
X34701Y34655D01*
X34797Y34615D01*
X34900Y34601D01*
X35003Y34615D01*
X35099Y34655D01*
X35182Y34718D01*
X35245Y34801D01*
X35285Y34897D01*
X35299Y35000D01*
X35285Y35103D01*
X35245Y35199D01*
X35182Y35282D01*
X35099Y35345D01*
X35003Y35385D01*
X34900Y35399D01*
D02*
G37*
G36*
X29960Y35022D02*
X29566D01*
X29481Y35005D01*
X29409Y34957D01*
X29361Y34885D01*
X29344Y34800D01*
X29361Y34715D01*
X29409Y34643D01*
X29481Y34595D01*
X29566Y34578D01*
X29960D01*
X30045Y34595D01*
X30117Y34643D01*
X30165Y34715D01*
X30182Y34800D01*
X30165Y34885D01*
X30117Y34957D01*
X30045Y35005D01*
X29960Y35022D01*
D02*
G37*
G36*
X24150Y31848D02*
X24082Y31841D01*
X23969Y31807D01*
X23865Y31751D01*
X23774Y31676D01*
X23699Y31585D01*
X23643Y31481D01*
X23609Y31368D01*
X23602Y31300D01*
X24150D01*
Y31848D01*
D02*
G37*
%LPD*%
G36*
X7470Y13792D02*
X7470D01*
X7470Y13792D01*
X7470D01*
X7470Y13792D01*
Y13792D01*
X7470Y13792D01*
Y13792D01*
X7519Y13759D01*
X7578Y13747D01*
X7956D01*
Y13209D01*
X8706D01*
Y13243D01*
X8752Y13263D01*
X9723Y12292D01*
X9772Y12259D01*
X9831Y12247D01*
X11479D01*
X11519Y12151D01*
X11593Y12054D01*
X11571Y12009D01*
X5557D01*
X5391Y12175D01*
X5431Y12271D01*
X5448Y12400D01*
X5431Y12529D01*
X5406Y12590D01*
X6079Y13263D01*
X6125Y13243D01*
Y13209D01*
X6875D01*
Y14321D01*
X6921Y14340D01*
X7470Y13792D01*
D02*
G37*
G36*
X8455Y14637D02*
X8436Y14591D01*
X7956D01*
Y14053D01*
X7641D01*
X7053Y14641D01*
X7072Y14688D01*
X8404D01*
X8455Y14637D01*
D02*
G37*
G36*
X38897Y20337D02*
Y15030D01*
X38635D01*
Y14318D01*
X38635Y14318D01*
X38635Y14282D01*
X38635D01*
Y14079D01*
X37718D01*
Y14591D01*
X37282D01*
Y14321D01*
X37013Y14053D01*
X36506D01*
Y14591D01*
X35756D01*
Y13209D01*
X36506D01*
Y13243D01*
X36552Y13263D01*
X37523Y12292D01*
X37523D01*
X37523Y12292D01*
X37523Y12292D01*
Y12292D01*
X37572Y12259D01*
X37631Y12247D01*
X39279D01*
X39319Y12151D01*
X39398Y12048D01*
X39501Y11969D01*
X39621Y11919D01*
X39742Y11903D01*
X39744Y11899D01*
X39741Y11853D01*
X32759D01*
X32756Y11903D01*
X32879Y11919D01*
X32999Y11969D01*
X33102Y12048D01*
X33181Y12151D01*
X33231Y12271D01*
X33248Y12400D01*
X33231Y12529D01*
X33206Y12590D01*
X33879Y13263D01*
X33925Y13243D01*
Y13209D01*
X34675D01*
Y14591D01*
X33925D01*
Y13741D01*
X33008Y12824D01*
X32999Y12831D01*
X32879Y12881D01*
X32750Y12898D01*
X32621Y12881D01*
X32501Y12831D01*
X32398Y12752D01*
X32319Y12649D01*
X32300Y12603D01*
X12769D01*
X12710Y12591D01*
X12661Y12558D01*
X12494Y12392D01*
X12447Y12408D01*
X12431Y12529D01*
X12381Y12649D01*
X12302Y12752D01*
X12199Y12831D01*
X12079Y12881D01*
X11950Y12898D01*
X11821Y12881D01*
X11701Y12831D01*
X11598Y12752D01*
X11519Y12649D01*
X11479Y12553D01*
X9894D01*
X8706Y13741D01*
Y14321D01*
X8752Y14340D01*
X9274Y13818D01*
X9324Y13785D01*
X9335Y13782D01*
Y13570D01*
X10165D01*
Y14282D01*
D01*
Y14282D01*
X10165Y14282D01*
Y14318D01*
X10165D01*
Y14521D01*
X10287D01*
X10542Y14266D01*
X10591Y14233D01*
X10650Y14221D01*
X21074D01*
X21133Y14233D01*
X21182Y14266D01*
X30108Y23192D01*
X30141Y23241D01*
X30153Y23300D01*
Y25047D01*
X30300D01*
Y24955D01*
X30300Y24955D01*
X30300Y24945D01*
X30300D01*
Y24480D01*
X30300Y24480D01*
X30300D01*
X30300Y24455D01*
Y24450D01*
Y24445D01*
X30300Y24420D01*
X30300Y24420D01*
X30300D01*
Y23955D01*
X31600D01*
Y24420D01*
X31600Y24420D01*
D01*
D01*
X31600Y24445D01*
Y24446D01*
Y24450D01*
X31600Y24455D01*
X31600Y24480D01*
X31600Y24480D01*
X31600D01*
Y24561D01*
X31646Y24580D01*
X31977Y24250D01*
X33300D01*
Y24445D01*
D01*
Y24445D01*
X33300Y24445D01*
Y24455D01*
X33300D01*
Y24920D01*
X33300Y24920D01*
D01*
D01*
X33300Y24945D01*
Y24946D01*
Y24950D01*
X33300Y24955D01*
X33300Y24980D01*
X33300Y24980D01*
X33300D01*
Y25420D01*
X33300Y25420D01*
D01*
D01*
X33300Y25445D01*
Y25446D01*
Y25450D01*
X33300Y25455D01*
X33300Y25480D01*
X33300Y25480D01*
X33300D01*
Y25547D01*
X33687D01*
X38897Y20337D01*
D02*
G37*
G36*
X6125Y13741D02*
X5688Y13305D01*
X5642Y13324D01*
Y13427D01*
X5158D01*
X4940Y13209D01*
X4894Y13228D01*
Y13481D01*
X4923Y13524D01*
X4935Y13583D01*
X4935Y13583D01*
X4935Y13583D01*
Y13583D01*
Y14056D01*
X5268D01*
Y14333D01*
X5423Y14488D01*
X6125D01*
Y13741D01*
D02*
G37*
%LPC*%
G36*
X33300Y24150D02*
X32700D01*
Y23955D01*
X33300D01*
Y24150D01*
D02*
G37*
G36*
X32600D02*
X32000D01*
Y23955D01*
X32600D01*
Y24150D01*
D02*
G37*
G36*
X5642Y13744D02*
X5474D01*
Y13527D01*
X5642D01*
Y13744D01*
D02*
G37*
G36*
X5374D02*
X5206D01*
Y13527D01*
X5374D01*
Y13744D01*
D02*
G37*
%LPD*%
D10*
X37126Y13477D02*
D03*
X37874D02*
D03*
X37500Y14323D02*
D03*
X4676Y13477D02*
D03*
X5424D02*
D03*
X5050Y14323D02*
D03*
D11*
X30950Y26200D02*
D03*
X32650D02*
D03*
X30950Y25700D02*
D03*
X32650D02*
D03*
X30950Y25200D02*
D03*
X32650D02*
D03*
X30950Y24700D02*
D03*
X32650D02*
D03*
X30950Y24200D02*
D03*
X32650D02*
D03*
X30950Y31650D02*
D03*
X32650D02*
D03*
X30950Y31150D02*
D03*
X32650D02*
D03*
X30950Y30650D02*
D03*
X32650D02*
D03*
X30950Y30150D02*
D03*
X32650D02*
D03*
X30950Y29650D02*
D03*
X32650D02*
D03*
D12*
X26550Y34924D02*
D03*
Y34176D02*
D03*
D13*
X32700Y35274D02*
D03*
Y34526D02*
D03*
X31250Y34526D02*
D03*
Y35274D02*
D03*
X39050Y13926D02*
D03*
Y14674D02*
D03*
X9750Y13926D02*
D03*
Y14674D02*
D03*
D14*
X27376Y27600D02*
D03*
X28124D02*
D03*
D15*
X27637Y35300D02*
D03*
Y34800D02*
D03*
Y34300D02*
D03*
Y33800D02*
D03*
X29763Y35300D02*
D03*
Y34800D02*
D03*
Y34300D02*
D03*
Y33800D02*
D03*
D16*
X6500Y13900D02*
D03*
X8331D02*
D03*
X34300D02*
D03*
X36131D02*
D03*
D17*
X39819Y11700D02*
X40294Y12175D01*
X28300Y11700D02*
X39819D01*
X37874Y13477D02*
X38393Y12958D01*
X39961D01*
X40294Y12625D01*
Y12175D02*
Y12625D01*
X28256Y11656D02*
X28300Y11700D01*
X4494Y11656D02*
X28256D01*
X4200Y11950D02*
X4494Y11656D01*
X4200Y11950D02*
Y12600D01*
X4650Y13050D01*
X4997D01*
X5424Y13477D01*
X9831Y12400D02*
X11950D01*
X8331Y13900D02*
X9831Y12400D01*
X4782Y14553D02*
X5070Y14841D01*
X8468D01*
X4676Y13477D02*
X4782Y13583D01*
Y14553D01*
X8468Y14841D02*
X9382Y13926D01*
X9750D01*
X5050Y14323D02*
Y14331D01*
X5359Y14641D01*
X6837D01*
X7578Y13900D01*
X8331D01*
X37126Y13477D02*
X37575Y13926D01*
X39050D01*
X37077Y13900D02*
X37500Y14323D01*
X36131Y13900D02*
X37077D01*
X4950Y12400D02*
X5494Y11856D01*
X4950Y12400D02*
X5000D01*
X6500Y13900D01*
X9750Y14674D02*
X10350D01*
X10650Y14374D01*
X32650Y25700D02*
X33750D01*
X39050Y20400D01*
Y14674D02*
Y20400D01*
X37631Y12400D02*
X39750D01*
X36131Y13900D02*
X37631Y12400D01*
X28124Y29682D02*
X28142Y29700D01*
X28124Y27600D02*
Y29682D01*
Y27600D02*
X28300Y27424D01*
Y26600D02*
Y27424D01*
X38300Y36550D02*
X39500Y35350D01*
X27413Y36550D02*
X38300D01*
X26105Y35242D02*
X27413Y36550D01*
X26105Y33155D02*
Y35242D01*
X24200Y31250D02*
X26105Y33155D01*
X32750Y12450D02*
X32850D01*
X32700D02*
X32750Y12400D01*
X12769Y12450D02*
X32700D01*
X30000Y25200D02*
X30950D01*
X30000Y23300D02*
Y25200D01*
X21074Y14374D02*
X30000Y23300D01*
X10650Y14374D02*
X21074D01*
X32735Y35274D02*
X33450Y34559D01*
Y30150D02*
Y34559D01*
X32700Y35274D02*
X32735D01*
X32650Y30150D02*
X33450D01*
X30250Y29650D02*
X30950D01*
X27637Y32263D02*
X30250Y29650D01*
X27637Y32263D02*
Y33800D01*
X29763D02*
Y34300D01*
X27637D02*
X29763D01*
X30785Y34246D02*
Y34844D01*
X30071Y33532D02*
X30785Y34246D01*
X31215Y35274D02*
X31250D01*
X30785Y34844D02*
X31215Y35274D01*
X29455Y33532D02*
X30071D01*
X29187Y33800D02*
X29455Y33532D01*
X27637Y33800D02*
X29187D01*
X32294Y35680D02*
X32700Y35274D01*
X30873Y35680D02*
X32294D01*
X30493Y35300D02*
X30873Y35680D01*
X29763Y35300D02*
X30493D01*
X26550Y34176D02*
X26674Y34300D01*
X27637D01*
X26926Y35300D02*
X27637D01*
X26550Y34924D02*
X26926Y35300D01*
X27376Y23524D02*
X28300Y22600D01*
X27376Y23524D02*
Y27600D01*
X27158Y27818D02*
X27376Y27600D01*
X27158Y27818D02*
Y29700D01*
X25608Y31250D02*
X27158Y29700D01*
X24200Y31250D02*
X25608D01*
X12175Y11856D02*
X12769Y12450D01*
X5494Y11856D02*
X12175D01*
X32850Y12450D02*
X34300Y13900D01*
X32650Y29650D02*
X38150D01*
X38400Y29900D01*
X34900Y34000D02*
X35900D01*
Y33400D02*
Y34000D01*
Y33400D02*
X38400Y30900D01*
Y30642D02*
Y30900D01*
Y30642D02*
X38925Y30117D01*
Y29683D02*
Y30117D01*
X38597Y29355D02*
X38925Y29683D01*
X31805Y29355D02*
X38597D01*
X31805D02*
Y31645D01*
X31800Y31650D02*
X31805Y31645D01*
X30950Y31650D02*
X31800D01*
X29850D02*
X30950D01*
X27637Y35300D02*
Y35937D01*
X27650Y35950D01*
X26550Y33700D02*
Y34176D01*
Y33700D02*
X26900Y33350D01*
X27637Y34800D02*
X28600D01*
X31250Y33800D02*
Y34526D01*
X32700Y33750D02*
Y34526D01*
X28300Y22600D02*
X29800Y24100D01*
Y25957D01*
X30338Y26495D01*
X31562D01*
X31650Y26407D01*
Y24793D02*
Y26407D01*
Y24793D02*
X32243Y24200D01*
X32650D01*
X4050Y2050D02*
G03*
X1850Y4250I-2200J0D01*
G01*
X43000Y4200D02*
G03*
X40800Y2000I0J-2200D01*
G01*
Y32600D02*
G03*
X43000Y30400I2200J0D01*
G01*
Y34800D02*
G03*
X40800Y32600I0J-2200D01*
G01*
X1900Y30400D02*
G03*
X4100Y32600I0J2200D01*
G01*
D02*
G03*
X1900Y34800I-2200J0D01*
G01*
X-50D02*
Y37250D01*
Y34800D02*
X1900D01*
X-50Y37250D02*
X44950D01*
Y34800D02*
Y37250D01*
X43000Y34800D02*
X44950D01*
X-50Y4250D02*
Y30400D01*
X4050Y100D02*
Y2050D01*
X-50Y4250D02*
X1850D01*
X4050Y100D02*
X40800D01*
Y2000D01*
X43000Y4200D02*
X44950D01*
Y30400D01*
X43000D02*
X44950D01*
X-50D02*
X1900D01*
D18*
X1750Y20250D02*
X3550D01*
X6200Y27250D02*
X9000D01*
X12950Y23300D01*
Y18850D02*
Y23300D01*
X11350Y17250D02*
X12950Y18850D01*
X3550Y17250D02*
X11350D01*
X3550Y20250D02*
Y29705D01*
X6200Y32355D01*
Y35250D01*
D19*
X4950Y12400D02*
D03*
X11950D02*
D03*
X32750D02*
D03*
X39750D02*
D03*
D20*
X5989Y6061D02*
D03*
Y4093D02*
D03*
X11600D02*
D03*
Y6061D02*
D03*
X33789D02*
D03*
Y4093D02*
D03*
X39400D02*
D03*
Y6061D02*
D03*
D21*
X27158Y29700D02*
D03*
D22*
X28142D02*
D03*
D23*
X24200Y31250D02*
D03*
Y35250D02*
D03*
X6200Y27250D02*
D03*
Y35250D02*
D03*
D24*
X12950Y18850D02*
D03*
X7950Y23950D02*
D03*
X17950D02*
D03*
D25*
X38400Y31900D02*
D03*
D26*
Y30900D02*
D03*
Y29900D02*
D03*
D27*
X38000Y35350D02*
D03*
D28*
X39500D02*
D03*
X1750Y20250D02*
D03*
D29*
X3550Y17250D02*
D03*
Y20250D02*
D03*
D30*
X1750Y18750D02*
D03*
D31*
X43050Y26400D02*
D03*
Y10150D02*
D03*
X1850D02*
D03*
Y26400D02*
D03*
D32*
X28300Y26600D02*
D03*
Y22600D02*
D03*
D33*
X35900Y35000D02*
D03*
Y34000D02*
D03*
X34900Y35000D02*
D03*
D34*
Y34000D02*
D03*
D35*
X28300Y11700D02*
D03*
X27650Y35950D02*
D03*
X29850Y31650D02*
D03*
X31250Y33800D02*
D03*
X32700Y33750D02*
D03*
X28600Y34800D02*
D03*
X26900Y33350D02*
D03*
M02*
